<svg width="328" height="65" viewBox="0 0 328 65" fill="none" xmlns="http://www.w3.org/2000/svg">
<path d="M36.876 13.6V52.288C36.876 60.736 32.908 64.96 24.972 64.96H12.204C4.268 64.96 0.3 60.736 0.3 52.288V13.6C0.3 5.152 4.268 0.927999 12.204 0.927999H24.972C32.908 0.927999 36.876 5.152 36.876 13.6ZM23.436 53.824V11.968C23.436 11.456 23.244 11.008 22.86 10.624C22.54 10.24 22.124 10.048 21.612 10.048H15.564C15.052 10.048 14.604 10.24 14.22 10.624C13.9 11.008 13.74 11.456 13.74 11.968V53.824C13.74 54.336 13.9 54.784 14.22 55.168C14.604 55.552 15.052 55.744 15.564 55.744H21.612C22.124 55.744 22.54 55.552 22.86 55.168C23.244 54.784 23.436 54.336 23.436 53.824ZM70.992 1.888C78.928 1.888 82.896 6.112 82.896 14.56V26.944C82.896 35.392 78.928 39.616 70.992 39.616H60.144V64H46.704V1.888H70.992ZM69.456 28.48V13.024C69.456 12.512 69.264 12.064 68.88 11.68C68.56 11.296 68.144 11.104 67.632 11.104H60.144V30.4H67.632C68.144 30.4 68.56 30.208 68.88 29.824C69.264 29.44 69.456 28.992 69.456 28.48ZM126.22 13.6V52.288C126.22 60.736 122.252 64.96 114.316 64.96H101.548C93.6118 64.96 89.6438 60.736 89.6438 52.288V13.6C89.6438 5.152 93.6118 0.927999 101.548 0.927999H114.316C122.252 0.927999 126.22 5.152 126.22 13.6ZM112.78 53.824V11.968C112.78 11.456 112.588 11.008 112.204 10.624C111.884 10.24 111.468 10.048 110.956 10.048H104.908C104.396 10.048 103.948 10.24 103.564 10.624C103.244 11.008 103.084 11.456 103.084 11.968V53.824C103.084 54.336 103.244 54.784 103.564 55.168C103.948 55.552 104.396 55.744 104.908 55.744H110.956C111.468 55.744 111.884 55.552 112.204 55.168C112.588 54.784 112.78 54.336 112.78 53.824ZM149.488 64H136.048V13.6C136.048 5.152 140.016 0.927999 147.952 0.927999H155.056C159.728 0.927999 163.056 2.464 165.04 5.536C166.896 2.464 170.224 0.927999 175.024 0.927999H182.128C190.064 0.927999 194.032 5.152 194.032 13.6V64H180.592V12.448C180.592 11.936 180.4 11.488 180.016 11.104C179.696 10.72 179.28 10.528 178.768 10.528H173.584C173.072 10.528 172.624 10.72 172.24 11.104C171.92 11.488 171.76 11.936 171.76 12.448V64H158.32V12.448C158.32 11.936 158.128 11.488 157.744 11.104C157.424 10.72 157.008 10.528 156.496 10.528H151.312C150.8 10.528 150.352 10.72 149.968 11.104C149.648 11.488 149.488 11.936 149.488 12.448V64Z" fill="#FB9E3A"/>
<path d="M227.461 1.888C235.397 1.888 239.365 6.112 239.365 14.56V26.944C239.365 35.392 235.397 39.616 227.461 39.616H216.613V64H203.173V1.888H227.461ZM225.925 28.48V13.024C225.925 12.512 225.733 12.064 225.349 11.68C225.029 11.296 224.613 11.104 224.101 11.104H216.613V30.4H224.101C224.613 30.4 225.029 30.208 225.349 29.824C225.733 29.44 225.925 28.992 225.925 28.48ZM282.689 13.6V52.288C282.689 60.736 278.721 64.96 270.785 64.96H258.017C250.081 64.96 246.113 60.736 246.113 52.288V13.6C246.113 5.152 250.081 0.927999 258.017 0.927999H270.785C278.721 0.927999 282.689 5.152 282.689 13.6ZM269.249 53.824V11.968C269.249 11.456 269.057 11.008 268.673 10.624C268.353 10.24 267.937 10.048 267.425 10.048H261.377C260.865 10.048 260.417 10.24 260.033 10.624C259.713 11.008 259.553 11.456 259.553 11.968V53.824C259.553 54.336 259.713 54.784 260.033 55.168C260.417 55.552 260.865 55.744 261.377 55.744H267.425C267.937 55.744 268.353 55.552 268.673 55.168C269.057 54.784 269.249 54.336 269.249 53.824ZM327.077 18.208H314.309V13.312C314.309 12.8 314.117 12.352 313.733 11.968C313.413 11.584 312.997 11.392 312.484 11.392H307.205C306.693 11.392 306.245 11.584 305.861 11.968C305.541 12.352 305.381 12.8 305.381 13.312V24.352C305.381 24.864 305.541 25.312 305.861 25.696C306.245 26.08 306.693 26.272 307.205 26.272H315.845C323.781 26.4 327.749 30.624 327.749 38.944V52.288C327.749 60.736 323.781 64.96 315.845 64.96H304.517C296.581 64.96 292.613 60.736 292.613 52.288V45.856H305.381V52.768C305.381 53.28 305.541 53.728 305.861 54.112C306.245 54.496 306.693 54.688 307.205 54.688H313.156C313.669 54.688 314.085 54.496 314.405 54.112C314.789 53.728 314.981 53.28 314.981 52.768V40.576C314.981 40.064 314.789 39.616 314.405 39.232C314.085 38.848 313.669 38.656 313.156 38.656H304.517C296.581 38.656 292.613 34.432 292.613 25.984V13.6C292.613 5.152 296.581 0.927999 304.517 0.927999H315.173C323.109 0.927999 327.077 5.152 327.077 13.6V18.208Z" fill="black"/>
</svg>
