<svg width="24" height="24" viewBox="0 0 24 24" fill="none" xmlns="http://www.w3.org/2000/svg">
<path d="M1.7095 19.9725C1.8135 21.248 2.804 22.2075 4.0805 22.296C5.55 22.398 7.8185 22.5 11 22.5C14.1815 22.5 16.45 22.398 17.9195 22.296C19.196 22.208 20.1865 21.248 20.2905 19.9725C20.398 18.655 20.5 16.6935 20.5 14C20.5 11.3065 20.398 9.345 20.2905 8.0275C20.1865 6.752 19.196 5.7925 17.9195 5.704C16.4495 5.602 14.1815 5.5 11 5.5C7.8185 5.5 5.55 5.602 4.08 5.704C2.804 5.792 1.8135 6.752 1.7095 8.0275C1.602 9.3445 1.5 11.3065 1.5 14C1.5 16.6935 1.602 18.655 1.7095 19.9725Z" fill="#8FBFFA"/>
<path d="M3.57996 5.78601C6.57246 4.22501 10.395 2.78351 13.959 1.90601C14.9955 1.65101 16.0665 2.03501 16.6055 2.95601C16.992 3.61601 17.464 4.52201 17.9625 5.70701L17.9195 5.70401C16.4495 5.60201 14.1815 5.50001 10.9995 5.50001C7.81846 5.50001 5.54996 5.60201 4.08046 5.70401C3.91159 5.71561 3.74368 5.74306 3.57996 5.78601ZM14.532 15.5615C14.5795 16.6265 15.4005 17.42 16.465 17.4625C17.0075 17.4845 17.682 17.5 18.5 17.5C19.318 17.5 19.9925 17.4845 20.535 17.4625C21.6 17.42 22.4205 16.6265 22.468 15.5615C22.487 15.128 22.5 14.6095 22.5 14C22.5 13.3905 22.487 12.872 22.468 12.4385C22.4205 11.3735 21.5995 10.58 20.535 10.5375C19.8569 10.5115 19.1785 10.499 18.5 10.5C17.682 10.5 17.0075 10.5155 16.465 10.5375C15.4 10.58 14.5795 11.3735 14.532 12.4385C14.5098 12.9587 14.4992 13.4793 14.5 14C14.5 14.61 14.513 15.128 14.532 15.5615Z" fill="white"/>
<path d="M3.63452 5.7575C6.61902 4.2075 10.4165 2.7775 13.9595 1.906C14.996 1.651 16.067 2.0345 16.606 2.9555C16.991 3.6135 17.461 4.5155 17.958 5.6945M14.532 15.5615C14.5795 16.6265 15.4005 17.42 16.465 17.4625C17.0075 17.4845 17.682 17.5 18.5 17.5C19.318 17.5 19.9925 17.4845 20.535 17.4625C21.6 17.42 22.4205 16.6265 22.468 15.5615C22.487 15.128 22.5 14.6095 22.5 14C22.5 13.3905 22.487 12.872 22.468 12.4385C22.4205 11.3735 21.5995 10.58 20.535 10.5375C19.857 10.5115 19.1785 10.499 18.5 10.5C17.682 10.5 17.0075 10.5155 16.465 10.5375C15.4 10.58 14.5795 11.3735 14.532 12.4385C14.5099 12.9587 14.4992 13.4793 14.5 14C14.5 14.61 14.513 15.128 14.532 15.5615Z" stroke="#2859C5" stroke-width="1.5" stroke-linecap="round" stroke-linejoin="round"/>
<path d="M20.437 10.5335C20.4058 9.69723 20.357 8.86171 20.2905 8.0275C20.1865 6.752 19.196 5.7925 17.9195 5.704C16.4495 5.602 14.1815 5.5 11 5.5C7.8185 5.5 5.55 5.602 4.08 5.704C2.804 5.792 1.8135 6.752 1.7095 8.0275C1.602 9.3445 1.5 11.3065 1.5 14C1.5 16.6935 1.602 18.655 1.7095 19.9725C1.8135 21.248 2.804 22.2075 4.0805 22.296C5.55 22.398 7.8185 22.5 11 22.5C14.1815 22.5 16.45 22.398 17.9195 22.296C19.196 22.208 20.1865 21.248 20.2905 19.9725C20.345 19.306 20.398 18.4745 20.437 17.4665M18 13.5V14.5" stroke="#2859C5" stroke-width="1.5" stroke-linecap="round" stroke-linejoin="round"/>
</svg>
