<svg width="24" height="24" viewBox="0 0 24 24" fill="none" xmlns="http://www.w3.org/2000/svg">
<path d="M1 5.783C1 5.27564 1.20155 4.78906 1.5603 4.4303C1.91906 4.07154 2.40564 3.87 2.913 3.87H21.087C21.5944 3.87 22.0809 4.07154 22.4397 4.4303C22.7985 4.78906 23 5.27564 23 5.783V18.217C23 18.7244 22.7985 19.2109 22.4397 19.5697C22.0809 19.9284 21.5944 20.13 21.087 20.13H2.913C2.40564 20.13 1.91906 19.9284 1.5603 19.5697C1.20155 19.2109 1 18.7244 1 18.217V5.783Z" fill="#66E1FF"/>
<path d="M2.913 3.87C2.40564 3.87 1.91906 4.07154 1.5603 4.4303C1.20155 4.78906 1 5.27564 1 5.783V18.217C1 18.715 1.195 19.193 1.543 19.55L17.224 3.87H2.913Z" fill="#C2F3FF"/>
<path d="M1 5.783C1 5.27564 1.20155 4.78906 1.5603 4.4303C1.91906 4.07154 2.40564 3.87 2.913 3.87H21.087C21.5944 3.87 22.0809 4.07154 22.4397 4.4303C22.7985 4.78906 23 5.27564 23 5.783V18.217C23 18.7244 22.7985 19.2109 22.4397 19.5697C22.0809 19.9284 21.5944 20.13 21.087 20.13H2.913C2.40564 20.13 1.91906 19.9284 1.5603 19.5697C1.20155 19.2109 1 18.7244 1 18.217V5.783Z" stroke="#191919" stroke-linecap="round" stroke-linejoin="round"/>
<path d="M5.26001 10.086H6.48501L6.83101 13.53C6.84087 13.6227 6.8807 13.7097 6.94444 13.7778C7.00819 13.8459 7.0924 13.8914 7.1843 13.9073C7.2762 13.9232 7.37079 13.9088 7.45374 13.8662C7.53669 13.8235 7.60349 13.755 7.64401 13.671L9.41801 9.98098M11.148 10.058L10.374 13.944M14.705 10.013C14.705 10.013 13.39 9.66898 12.942 10.417C12.492 11.165 13.196 11.642 13.659 11.927C14.122 12.21 14.631 12.644 14.496 13.152C14.361 13.66 13.794 14.408 12.296 13.884M15.827 13.943L17.625 10.318C17.6659 10.2366 17.7322 10.1708 17.8139 10.1306C17.8955 10.0904 17.9881 10.0779 18.0775 10.0951C18.1669 10.1123 18.2483 10.1583 18.3092 10.2259C18.3701 10.2936 18.4072 10.3793 18.415 10.47L18.702 13.883M16.395 12.794H18.621" stroke="#191919" stroke-linecap="round" stroke-linejoin="round"/>
</svg>
